<?xml version="1.0" encoding="UTF-8" standalone="no"?>
<svg
   viewBox="0 0 152.7 100.69"
   version="1.1"
   id="svg48"
   xmlns="http://www.w3.org/2000/svg"
   xmlns:svg="http://www.w3.org/2000/svg">
  <defs
     id="defs52">
    <rect
       x="37.566855"
       y="77.097989"
       width="82.008689"
       height="19.397265"
       id="rect614" />
  </defs>
  <path
     id="path44"
     style="text-decoration-color:#000000;isolation:auto;mix-blend-mode:normal;text-indent:0;block-progression:tb;text-decoration-line:none;text-transform:none;text-decoration-style:solid"
     d="M 1.9609375,0 C 0.88095802,0 0,0.85087841 0,1.8808594 V 90.179688 c 0,0.999981 0.87947362,1.859375 1.9394531,1.859374 H 28.039062 V 90.390625 H 1.9609375 c -0.149998,0 -0.25,-0.100469 -0.25,-0.230469 V 1.8691406 c 0,-0.1399962 0.098281,-0.21875 0.2382813,-0.21875 H 150.75 c 0.15,0 0.24023,0.080469 0.24023,0.2304688 V 90.179688 c 0,0.129981 -0.10023,0.220703 -0.24023,0.220703 h -27.40039 v 1.638671 H 150.75 c 1.07,0 1.94922,-0.858925 1.94922,-1.878906 V 1.8691406 C 152.69922,0.84916037 151.81958,0 150.75977,0 Z" />
  <path
     id="path46"
     d="m 77.585938,14.769531 c -2.029021,-0.02406 -4.015042,-0.01375 -5.875,0.03125 -16.299664,0.42 -26.240866,2.199537 -30.300782,5.439453 -0.549979,0.43 -1.230489,1.19924 -1.480468,1.699219 -0.17,0.36 -0.08953,3.679949 0.230468,8.339844 1.359979,19.199601 6.119543,32.100928 14.359375,38.800781 3.249937,2.649937 6.980554,4.400412 11.480469,5.400391 1.949958,0.429979 3.209751,0.61875 6.429688,0.96875 l -0.0098,-0.01953 c 1.299979,0.129979 4.670844,-0.109318 7.300781,-0.529297 5.679874,-0.909979 11.478678,-3.430532 15.558594,-6.730469 L 96.099609,67.5 97.150391,67.339844 c 3.789999,-0.61 8.939349,-2.459438 13.619139,-4.859375 10.52979,-5.459895 18.29961,-12.900928 20.59961,-19.800781 0.59,-1.779979 0.75,-2.680121 0.75,-4.580079 0.02,-2.289937 -0.3093,-3.709651 -1.2793,-5.849609 -1.12,-2.399958 -3.48992,-5.010938 -5.41992,-5.960938 -1.31,-0.649979 -2.11039,-0.798828 -4.15039,-0.798828 -2.01,0 -2.79969,0.120704 -5.17969,0.720704 -1.31979,0.329979 -3.72054,1.108906 -5.06054,1.628906 -0.29,0.11 -0.53907,0.179687 -0.53907,0.179687 -0.02,-0.02 -0.0711,-1.369573 -0.12109,-3.019531 -0.13,-3.679916 -0.14953,-3.78088 -1.26953,-4.880859 -0.65,-0.64 -0.90922,-0.819865 -1.94922,-1.339844 -2.78,-1.359979 -6.5306,-2.270021 -12.40039,-3 -4.604895,-0.57 -11.077021,-0.937578 -17.164062,-1.009766 z m -2.496094,4.470703 c 11.519748,0 21.290164,1.019261 25.749996,2.699219 0.88,0.33 1.4293,0.650802 1.7793,1.050781 0.41,0.46 0.39161,0.809766 -0.0586,1.259766 -0.98,0.939979 -3.4804,1.700391 -7.820316,2.400391 -2.179937,0.339979 -1.980468,0.400369 -1.980468,-0.59961 0,-0.899979 -0.12961,-1.281661 -0.59961,-1.68164 -0.459979,-0.38 -0.760901,-0.389123 -2.630859,-0.03906 -3.619937,0.679979 -5.480126,0.820313 -11,0.820313 -4.499916,0.01 -4.468771,1.77e-4 -4.96875,0.660156 -0.23,0.3 -0.260781,0.449219 -0.300781,1.199219 L 73.279297,27 73.25,27.839844 h -1.660156 c -6.979853,-0.08 -14.580183,-0.779318 -19.080078,-1.779297 -3.739937,-0.839979 -5.489433,-1.839865 -4.939454,-2.839844 0.22,-0.379979 1.029162,-0.95125 1.869141,-1.28125 4.209916,-1.639958 14.170622,-2.679219 25.650391,-2.699219 z M 89.560547,27.5 v 12.550781 l -0.02148,12.5 -2.548828,-3.820312 c -1.399958,-2.099958 -2.689609,-3.951094 -2.849609,-4.121094 -0.559979,-0.519979 -1.420021,-0.558653 -2,-0.05859 -0.17,0.13 -1.440334,1.959339 -2.820313,4.029297 l 0.0098,-0.0098 c -1.399958,2.079958 -2.559609,3.80961 -2.599609,3.84961 -0.09,0.1 -0.180703,-7.459194 -0.220703,-16.958984 l -0.0293,-7.101563 3.298828,-0.05859 c 3.429916,-0.05 5.490219,-0.201583 8.160156,-0.601562 C 88.818712,27.579739 89.540547,27.5 89.560547,27.5 Z m 29.628903,5.609375 c 1.74,-0.12 3.01008,0.32088 4.08008,1.380859 1.08,1.049979 1.56008,2.449261 1.58008,4.449219 0,1.289979 -0.17867,2.300646 -0.63867,3.640625 -1.3,3.769916 -4.12099,7.089907 -8.30078,9.839844 -2.55,1.679958 -6.04943,3.129708 -9.44922,3.929687 h -0.0117 c -0.64,0.15 -1.37867,0.30961 -1.63867,0.34961 l -0.46094,0.07031 0.55078,-1.199219 c 2.25,-4.759895 3.83922,-10.301063 4.69922,-16.460937 0.27,-1.919958 0.0906,-1.659573 2.14062,-3.019531 2.85,-1.909958 5.19943,-2.850469 7.44922,-2.980469 z M 64.841797,100.6875 c 0.0029,4e-5 0.0049,0.002 0.0078,0.002 l 0.0059,-0.002 c -0.0046,1e-5 -0.0091,-1e-5 -0.01367,0 z" />
  <text
     xml:space="preserve"
     id="text612"
     style="font-size:17.3333px;white-space:pre;shape-inside:url(#rect614);display:inline;fill:#000000" />
  <text
     xml:space="preserve"
     style="font-size:23.7816px;letter-spacing:0.150923px;word-spacing:0.0960417px;fill:#000000;stroke-width:1.37202"
     x="32.843014"
     y="100.22832"
     id="text620"
     transform="scale(1.0613446,0.94220104)"><tspan
       id="tspan618"
       x="32.843014"
       y="100.22832"
       dx="0.068601258"
       dy="0.096041769"
       rotate="0.2 0.2 0.2 0.2 0.2 0.2 0.2 0"
       style="stroke-width:1.37202">linklog</tspan></text>
</svg>
